<?xml version="1.0" standalone="no"?><!DOCTYPE svg PUBLIC "-//W3C//DTD SVG 1.1//EN" "http://www.w3.org/Graphics/SVG/1.1/DTD/svg11.dtd"><svg t="1608899530388" class="icon" viewBox="0 0 1024 1024" version="1.1" xmlns="http://www.w3.org/2000/svg" p-id="33622" xmlns:xlink="http://www.w3.org/1999/xlink" width="200" height="200"><defs><style type="text/css"></style></defs><path d="M512 853.333333C323.84 853.333333 170.666667 700.16 170.666667 512 170.666667 323.84 323.84 170.666667 512 170.666667 700.16 170.666667 853.333333 323.84 853.333333 512 853.333333 700.16 700.16 853.333333 512 853.333333M512 85.333333C276.48 85.333333 85.333333 276.48 85.333333 512 85.333333 747.52 276.48 938.666667 512 938.666667 747.52 938.666667 938.666667 747.52 938.666667 512 938.666667 276.48 747.52 85.333333 512 85.333333M554.666667 298.666667 469.333333 298.666667 469.333333 469.333333 298.666667 469.333333 298.666667 554.666667 469.333333 554.666667 469.333333 725.333333 554.666667 725.333333 554.666667 554.666667 725.333333 554.666667 725.333333 469.333333 554.666667 469.333333 554.666667 298.666667Z" p-id="33623"></path></svg>