<?xml version="1.0" standalone="no"?><!DOCTYPE svg PUBLIC "-//W3C//DTD SVG 1.1//EN" "http://www.w3.org/Graphics/SVG/1.1/DTD/svg11.dtd"><svg t="1608899624312" class="icon" viewBox="0 0 1024 1024" version="1.1" xmlns="http://www.w3.org/2000/svg" p-id="33752" xmlns:xlink="http://www.w3.org/1999/xlink" width="200" height="200"><defs><style type="text/css"></style></defs><path d="M128 42.666667C80.64 42.666667 42.666667 80.64 42.666667 128L42.666667 597.333333C42.666667 644.693333 80.64 682.666667 128 682.666667 184.746667 682.666667 298.666667 682.666667 298.666667 682.666667 298.666667 682.666667 298.666667 796.586667 298.666667 853.333333 298.666667 900.693333 336.64 938.666667 384 938.666667L853.333333 938.666667C900.693333 938.666667 938.666667 900.693333 938.666667 853.333333L938.666667 384C938.666667 336.64 900.693333 298.666667 853.333333 298.666667 796.586667 298.666667 682.666667 298.666667 682.666667 298.666667 682.666667 298.666667 682.666667 184.746667 682.666667 128 682.666667 80.64 644.693333 42.666667 597.333333 42.666667L128 42.666667M128 128 597.333333 128C597.333333 184.746667 597.333333 298.666667 597.333333 298.666667L384 298.666667C336.64 298.666667 298.666667 336.64 298.666667 384L298.666667 597.333333C298.666667 597.333333 184.746667 597.333333 128 597.333333L128 128M384 384 597.333333 384 597.333333 597.333333 384 597.333333 384 384M682.666667 384C682.666667 384 796.586667 384 853.333333 384L853.333333 853.333333 384 853.333333C384 796.586667 384 682.666667 384 682.666667L597.333333 682.666667C644.693333 682.666667 682.666667 644.693333 682.666667 597.333333L682.666667 384Z" p-id="33753"></path></svg>