<?xml version="1.0" standalone="no"?><!DOCTYPE svg PUBLIC "-//W3C//DTD SVG 1.1//EN" "http://www.w3.org/Graphics/SVG/1.1/DTD/svg11.dtd"><svg t="1608877367341" class="icon" viewBox="0 0 1024 1024" version="1.1" xmlns="http://www.w3.org/2000/svg" p-id="33299" xmlns:xlink="http://www.w3.org/1999/xlink" width="200" height="200"><defs><style type="text/css"></style></defs><path d="M810.666667 128 640 128 640 213.333333 810.666667 213.333333 810.666667 384 896 384 896 213.333333C896 165.973333 857.6 128 810.666667 128M810.666667 810.666667 640 810.666667 640 896 810.666667 896C857.6 896 896 857.6 896 810.666667L896 640 810.666667 640M213.333333 640 128 640 128 810.666667C128 857.6 166.4 896 213.333333 896L384 896 384 810.666667 213.333333 810.666667M128 213.333333 128 384 213.333333 384 213.333333 213.333333 384 213.333333 384 128 213.333333 128C166.4 128 128 166.4 128 213.333333Z" p-id="33300"></path></svg>