<?xml version="1.0" standalone="no"?><!DOCTYPE svg PUBLIC "-//W3C//DTD SVG 1.1//EN" "http://www.w3.org/Graphics/SVG/1.1/DTD/svg11.dtd"><svg t="1614833068304" class="icon" viewBox="0 0 1024 1024" version="1.1" xmlns="http://www.w3.org/2000/svg" p-id="10304" xmlns:xlink="http://www.w3.org/1999/xlink" width="200" height="200"><defs><style type="text/css"></style></defs><path d="M791.1 467.2c-16.7 0-30.3 13.6-30.3 30.3v244.4l0.2 1.9c0.8 5.5-1 11-4.9 15-3.8 3.9-9.1 5.8-14.7 5.3l-1.2-0.2H290.4l-2.2 0.1c-5.3 0.7-11-1.2-14.7-5-3.7-3.8-5.5-9.3-4.8-14.7l0.2-1.3V283.4l-0.2-2.2c-0.8-5.4 0.9-10.8 4.6-14.7 3.8-4 9.4-5.9 14.9-5.2l1 0.1h212.1c16.1-1.1 29-14.5 29.2-30.7v-0.3c-0.2-16.7-13.4-30.1-30.2-30.6h-0.1l-54.9 0.5H283.6c-20.3 0.3-39.4 8.4-53.6 22.8-14.3 14.5-22.2 33.6-22.3 54v472.3c0.1 20.3 8 39.5 22.3 53.9 14.2 14.4 33.3 22.5 53.6 22.8h462c20.2-0.3 39.1-8.3 53.3-22.7 14.2-14.4 22.1-33.4 22.2-53.7V497.5c0.2-16.7-13.4-30.3-30-30.3z" p-id="10305"></path><path d="M795.3 201.8H667.5c-15.3 0-27.8 12.5-27.8 27.8s12.5 27.8 27.8 27.8h53.7L470.1 512.8c-5.2 5.3-8.1 12.3-8.1 19.6 0 7.5 2.9 14.4 8.1 19.6l7.5 7.5c5.3 5.3 12.2 8.1 19.6 8.1 7.5 0 14.4-2.9 19.6-8.1l250.8-255v52.9c0 15.3 12.5 27.8 27.8 27.8s27.8-12.5 27.8-27.8V229.5c-0.1-15.3-12.5-27.7-27.9-27.7z" p-id="10306"></path></svg>