<?xml version="1.0" standalone="no"?><!DOCTYPE svg PUBLIC "-//W3C//DTD SVG 1.1//EN" "http://www.w3.org/Graphics/SVG/1.1/DTD/svg11.dtd"><svg t="1614832960599" class="icon" viewBox="0 0 1024 1024" version="1.1" xmlns="http://www.w3.org/2000/svg" p-id="7618" xmlns:xlink="http://www.w3.org/1999/xlink" width="200" height="200"><defs><style type="text/css"></style></defs><path d="M886.957214 1018.905473H131.948259c-32.095522 0-58.077612-25.98209-58.077612-58.077612V58.077612C73.870647 25.98209 99.852736 0 131.948259 0h519.132338c11.20796 0 21.397015 4.075622 29.548259 11.20796l250.141293 227.725373c9.170149 8.151244 14.264677 20.378109 14.264677 32.604975v689.289553c0 32.095522-25.98209 58.077612-58.077612 58.077612zM153.854726 938.921393h711.19602V287.840796l-228.234826-207.347264H153.854726v858.427861z" p-id="7619"></path><path d="M744.8199 696.931343L631.721393 585.870647c28.0199-36.171144 42.79403-80.493532 42.79403-125.834826 0-113.60796-92.720398-206.328358-206.328358-206.328358S261.858706 345.918408 261.858706 460.035821s92.720398 206.328358 206.328359 206.328358c36.171144 0 71.832836-9.679602 102.909452-27.510448l117.17413 115.136319c15.793035 15.283582 41.265672 14.774129 56.549253-1.018906 15.793035-15.793035 15.793035-40.756219 0-56.039801z m-402.467661-236.895522c0-69.795025 56.549254-126.344279 126.344278-126.344279s126.344279 56.549254 126.344279 126.344279c0 69.795025-56.549254 126.344279-126.344279 126.344279-69.795025-0.509453-126.344279-57.058706-126.344278-126.344279z" p-id="7620"></path></svg>