<?xml version="1.0" standalone="no"?><!DOCTYPE svg PUBLIC "-//W3C//DTD SVG 1.1//EN" "http://www.w3.org/Graphics/SVG/1.1/DTD/svg11.dtd"><svg t="1614832512186" class="icon" viewBox="0 0 1024 1024" version="1.1" xmlns="http://www.w3.org/2000/svg" p-id="2432" xmlns:xlink="http://www.w3.org/1999/xlink" width="200" height="200"><defs><style type="text/css"></style></defs><path d="M512 85.333333c235.648 0 426.666667 191.018667 426.666667 426.666667s-191.018667 426.666667-426.666667 426.666667S85.333333 747.648 85.333333 512 276.352 85.333333 512 85.333333z m0 64C311.701333 149.333333 149.333333 311.701333 149.333333 512s162.368 362.666667 362.666667 362.666667 362.666667-162.368 362.666667-362.666667S712.298667 149.333333 512 149.333333z m-97.024 170.666667a21.333333 21.333333 0 0 1 21.333333 21.333333v341.333334a21.333333 21.333333 0 0 1-21.333333 21.333333h-21.333333a21.333333 21.333333 0 0 1-21.333334-21.333333V341.333333a21.333333 21.333333 0 0 1 21.333334-21.333333h21.333333z m213.333333 0a21.333333 21.333333 0 0 1 21.333334 21.333333v341.333334a21.333333 21.333333 0 0 1-21.333334 21.333333h-21.333333a21.333333 21.333333 0 0 1-21.333333-21.333333V341.333333a21.333333 21.333333 0 0 1 21.333333-21.333333h21.333333z" fill="#000000" p-id="2433"></path></svg>