<?xml version="1.0" standalone="no"?><!DOCTYPE svg PUBLIC "-//W3C//DTD SVG 1.1//EN" "http://www.w3.org/Graphics/SVG/1.1/DTD/svg11.dtd"><svg t="1614832764605" class="icon" viewBox="0 0 1024 1024" version="1.1" xmlns="http://www.w3.org/2000/svg" p-id="3773" xmlns:xlink="http://www.w3.org/1999/xlink" width="200" height="200"><defs><style type="text/css"></style></defs><path d="M858.24 556.757333a340.394667 340.394667 0 0 0 0.426667-105.088l60.437333-33.92a42.773333 42.773333 0 0 0 16.341333-58.112l-79.573333-141.994666a42.666667 42.666667 0 0 0-56.661333-17.109334l-67.221334 34.474667A355.797333 355.797333 0 0 0 638.293333 181.76V109.653333a42.666667 42.666667 0 0 0-42.666666-42.666666h-169.344a42.666667 42.666667 0 0 0-42.666667 42.666666V182.186667a355.904 355.904 0 0 0-93.077333 53.162666l-60.416-35.328a42.666667 42.666667 0 0 0-58.602667 15.658667l-82.410667 144.256a42.666667 42.666667 0 0 0 15.765334 58.154667l59.306666 34.133333a340.053333 340.053333 0 0 0 0.426667 104.021333l-64.789333 37.12a42.666667 42.666667 0 0 0-15.573334 58.624l83.264 141.824a42.666667 42.666667 0 0 0 57.429334 15.744l67.754666-37.418666a356.16 356.16 0 0 0 90.922667 51.456v75.434666a42.666667 42.666667 0 0 0 42.666667 42.666667h169.344a42.666667 42.666667 0 0 0 42.666666-42.666667v-75.050666a356.053333 356.053333 0 0 0 91.52-51.498667l69.504 37.504a42.666667 42.666667 0 0 0 57.173334-16.213333l82.005333-141.824a42.666667 42.666667 0 0 0-15.808-58.410667l-64.469333-36.757333z m-47.509333 189.674667c-0.042667 0.064-0.149333 0.256-0.469334 0.256-0.064 0-0.106667 0-0.213333-0.085333l-67.946667-38.464a31.936 31.936 0 0 0-36.906666 3.904 291.157333 291.157333 0 0 1-107.733334 60.586666 30.933333 30.933333 0 0 0-22.08 29.461334v77.376c0 0.277333-0.213333 0.490667-0.490666 0.490666h-127.850667a0.490667 0.490667 0 0 1-0.490667-0.490666v-77.696a30.933333 30.933333 0 0 0-21.973333-29.418667 291.178667 291.178667 0 0 1-107.178667-60.629333 31.786667 31.786667 0 0 0-36.928-3.925334l-68.565333 38.826667c-0.128 0.064-0.170667 0.064-0.213333 0.064-0.32 0-0.426667-0.192-0.469334-0.256L147.306667 637.866667a0.490667 0.490667 0 0 1 0.170666-0.64l67.946667-38.485334c11.925333-6.741333 17.984-20.309333 14.954667-33.493333a279.210667 279.210667 0 0 1-0.512-122.368 30.634667 30.634667 0 0 0-15.04-33.237333l-67.349334-38.144a0.490667 0.490667 0 0 1-0.170666-0.661334l63.914666-108.586666c0.042667-0.064 0.149333-0.256 0.469334-0.256 0.042667 0 0.106667 0 0.213333 0.085333l66.56 37.674667c11.946667 6.784 27.008 5.12 37.12-4.096a290.986667 290.986667 0 0 1 108.992-62.272 30.933333 30.933333 0 0 0 21.973333-29.418667V129.194667c0-0.277333 0.213333-0.490667 0.490667-0.490667h127.850667c0.277333 0 0.490667 0.213333 0.490666 0.490667v74.453333c0 13.482667 8.96 25.408 22.101334 29.44a290.986667 290.986667 0 0 1 109.525333 62.250667c10.112 9.173333 25.152 10.816 37.077333 4.053333l65.941334-37.333333c0.128-0.085333 0.192-0.085333 0.213333-0.085334 0.341333 0 0.426667 0.213333 0.469333 0.256L874.666667 370.816c0.042667 0.085333 0.106667 0.170667 0.042666 0.362667-0.042667 0.213333-0.128 0.234667-0.213333 0.298666l-66.474667 37.632c-11.861333 6.72-17.92 20.181333-15.018666 33.28a279.232 279.232 0 0 1-0.512 123.306667 30.634667 30.634667 0 0 0 14.933333 33.536l67.050667 37.973333c0.106667 0.042667 0.192 0.085333 0.234666 0.277334 0.064 0.213333 0 0.277333-0.042666 0.384l-63.914667 108.586666zM511.466667 346.666667c-87.829333 0-159.296 70.08-159.296 156.224s71.466667 156.224 159.296 156.224c87.850667 0 159.317333-70.08 159.317333-156.224s-71.466667-156.224-159.317333-156.224z m0 250.730666c-53.12 0-96.384-42.389333-96.384-94.506666 0-52.117333 43.242667-94.506667 96.384-94.506667 53.141333 0 96.384 42.389333 96.384 94.506667 0 52.117333-43.242667 94.506667-96.384 94.506666z" fill="#000000" p-id="3774"></path></svg>