<?xml version="1.0" standalone="no"?><!DOCTYPE svg PUBLIC "-//W3C//DTD SVG 1.1//EN" "http://www.w3.org/Graphics/SVG/1.1/DTD/svg11.dtd"><svg t="1614832178873" class="icon" viewBox="0 0 1024 1024" version="1.1" xmlns="http://www.w3.org/2000/svg" p-id="1824" xmlns:xlink="http://www.w3.org/1999/xlink" width="200" height="200"><defs><style type="text/css"></style></defs><path d="M746.666667 554.666667a192 192 0 1 1 0 384 192 192 0 0 1 0-384zM160 128l0.085333 243.797333c47.786667-75.946667 102.656-115.157333 166.08-115.157333 54.677333 0 84.842667 28.650667 122.304 94.848l18.346667 33.28c38.464 69.141333 67.498667 95.232 121.301333 95.232 60.309333 0 87.253333-20.629333 111.637334-87.68l3.648-10.410667 3.626666-11.136 3.626667-11.861333 3.690667-12.586667 8.32-30.165333 4.032-14.08 3.84-12.8 3.690666-11.733333c1.216-3.754667 2.410667-7.338667 3.626667-10.752l3.626667-9.898667 3.669333-9.173333c6.826667-16.170667 14.208-29.290667 23.829333-42.794667C799.872 161.578667 844.970667 138.666667 906.965333 138.666667a32 32 0 0 1 0 64c-53.781333 0-80.149333 16.981333-102.72 71.317333l-3.733333 9.386667-1.856 4.992-3.669333 10.474666-1.813334 5.525334-3.669333 11.605333-3.690667 12.373333-3.733333 13.184-4.437333 16.106667-4.138667 14.741333-1.984 6.890667-3.84 12.885333-3.754667 11.797334-3.690666 10.837333c-1.834667 5.205333-3.669333 10.069333-5.546667 14.72l-3.797333 8.917333a213.376 213.376 0 0 1-22.442667 38.954667c-31.445333 43.605333-77.290667 66.624-140.330667 66.624-81.088 0-126.186667-38.613333-173.397333-121.322667l-21.632-39.082666-5.76-10.026667c-23.445333-39.616-39.04-52.928-61.162667-52.928-57.472 0-114.282667 63.146667-166.058666 197.034667L160.192 864h373.12l0.554667 64H138.88c-23.552 0-42.666667-19.114667-42.666667-42.666667l-0.128-371.029333a31.786667 31.786667 0 0 1 0.021334-5.013333L96 128h64zM746.666667 618.666667a128 128 0 1 0 0 256 128 128 0 0 0 0-256z m0 27.306666c13.802667 0 25.173333 10.496 26.538666 23.936l0.128 2.730667v63.018667h53.973334c13.802667 0 25.173333 10.496 26.538666 23.936l0.128 2.730666a26.666667 26.666667 0 0 1-23.936 26.517334l-2.730666 0.149333H746.666667a26.666667 26.666667 0 0 1-26.538667-23.936l-0.128-2.730667V672.64c0-14.72 11.946667-26.666667 26.666667-26.666667z" fill="#000000" p-id="1825"></path></svg>